<svg xmlns="http://www.w3.org/2000/svg" xmlns:xlink="http://www.w3.org/1999/xlink" id="processonSvg1000" viewBox="27.013885498046875 43.39930558204651 116.0 103.0" width="116.0" height="103.0"><defs id="ProcessOnDefs1001"><pattern id="ProcessOnPattern1007" patternUnits="userSpaceOnUse" width="76.0" height="63.0" patternTransform="matrix(1.0,0.0,0.0,1.0,0.0,0.0)"><svg version="1.1" id="图层_1" xmlns:dc="http://purl.org/dc/elements/1.1/" xmlns:cc="http://creativecommons.org/ns#" xmlns:rdf="http://www.w3.org/1999/02/22-rdf-syntax-ns#" xmlns="http://www.w3.org/2000/svg" xmlns:xlink="http://www.w3.org/1999/xlink" x="0px" y="0px" width="76px" height="63px" viewBox="0 0 76 63" enable-background="new 0 0 76 63" xml:space="preserve"> <path fill="#00BCF2" d="M2.172,0C0.866,0,0,0.77,0,2.172v58.654c0,1.209,0.617,2.172,2.172,2.172h71.657 c1.499,0.053,2.174-0.864,2.171-2.172V2.172C76,0.915,75.094,0,73.829,0H2.172z M4.343,17.378h15.2v8.69h-15.2V17.378z M21.715,17.378h15.2v8.69h-15.2V17.378z M39.085,17.378h15.201v8.69H39.085V17.378z M56.458,17.378h15.199v8.69H56.458V17.378z M4.343,28.241h15.2v8.688h-15.2V28.241z M21.715,28.241h15.2v8.688h-15.2V28.241z M39.085,28.241h15.201v8.688H39.085V28.241z M56.458,28.241h15.199v8.688H56.458V28.241z M4.343,39.102h15.2v8.689h-15.2V39.102z M21.715,39.102h15.2v8.689h-15.2V39.102z M39.085,39.102h15.201v8.689H39.085V39.102z M56.458,39.102h15.199v8.689H56.458V39.102z M4.343,49.965h15.2v8.689h-15.2V49.965z M21.715,49.965h15.2v8.689h-15.2V49.965z M39.085,49.965h15.201v8.689H39.085V49.965z M56.458,49.965h15.199v8.689H56.458V49.965z" /> </svg> </pattern></defs><g id="ProcessOnG1002"><path id="ProcessOnPath1003" d="M27.013885498046875 43.39930558204651H143.01388549804688V146.3993055820465H27.013885498046875V43.39930558204651Z" fill="none"/><g id="ProcessOnG1004"><g id="ProcessOnG1005" transform="matrix(1.0,0.0,0.0,1.0,47.013885498046875,63.39930558204651)" opacity="1.0"><path id="ProcessOnPath1006" d="M0.0 0.0L76.0 0.0L76.0 63.0L0.0 63.0Z" stroke="#323232" stroke-width="0.0" stroke-dasharray="none" opacity="1.0" fill="url(#ProcessOnPattern1007)"/></g></g></g></svg>